PathFileType  4	(X/Y/Z) C:\Users\antoi\Documents\MyRepositories\mobilecap\ResultsAnalysis
DataRate	CameraRate	NumFrames	NumMarkers	Units	OrigDataRate	OrigDataStartFrame	OrigNumFrames
100.0	100.0	6	51	mm	100.0	170	271
Frame#	Time	r_knee			r_shank_antsup			r_ankle			r_calc			r_5meta			r_toe			L_knee			L_shank_antsup			L_ankle			L_calc			L_5meta			L_toe			r_sh2			r_sh3			r_sh4			L_sh2			L_sh3			r_thigh1			r_thigh2			r_thigh3			r_thigh4			r_thigh5			L_thigh1			L_thigh2			L_thigh3			L_thigh4			r.ASIS			r.PSIS			L.ASIS			L.PSIS			C7			R_Shoulder			L_Shoulder			R_Sternum			L_Sternum			R_humerus			R_elbow_med			R_elbow_lat			R_forearm			R_wrist_radius			R_wrist_ulna			L_humerus			L_elbow_med			L_elbow_lat			L_forearm			L_wrist_radius			L_wrist_ulna			R_HJC			L_HJC			R_HJC_reg			L_HJC_reg			
		X1	Y1	Z1	X2	Y2	Z2	X3	Y3	Z3	X4	Y4	Z4	X5	Y5	Z5	X6	Y6	Z6	X7	Y7	Z7	X8	Y8	Z8	X9	Y9	Z9	X10	Y10	Z10	X11	Y11	Z11	X12	Y12	Z12	X13	Y13	Z13	X14	Y14	Z14	X15	Y15	Z15	X16	Y16	Z16	X17	Y17	Z17	X18	Y18	Z18	X19	Y19	Z19	X20	Y20	Z20	X21	Y21	Z21	X22	Y22	Z22	X23	Y23	Z23	X24	Y24	Z24	X25	Y25	Z25	X26	Y26	Z26	X27	Y27	Z27	X28	Y28	Z28	X29	Y29	Z29	X30	Y30	Z30	X31	Y31	Z31	X32	Y32	Z32	X33	Y33	Z33	X34	Y34	Z34	X35	Y35	Z35	X36	Y36	Z36	X37	Y37	Z37	X38	Y38	Z38	X39	Y39	Z39	X40	Y40	Z40	X41	Y41	Z41	X42	Y42	Z42	X43	Y43	Z43	X44	Y44	Z44	X45	Y45	Z45	X46	Y46	Z46	X47	Y47	Z47	X48	Y48	Z48	X49	Y49	Z49	X50	Y50	Z50	X51	Y51	Z51	

170	1.69000000	-94.00984	461.82326	-434.61137	-91.05432	384.10498	-416.17020	-318.52456	107.25849	-447.07865	-388.16579	57.00114	-501.07659	-202.69142	38.89573	-393.29311	-157.70793	58.26282	-448.54323	-82.05820	479.47181	-761.92469	-93.30406	371.00187	-782.81495	-291.45668	111.20904	-750.91899	-364.04193	62.78506	-703.71379	-127.64913	57.22851	-754.07413	-163.14672	34.17723	-814.36144	-151.50205	288.19334	-414.84565	-155.21308	424.61929	-405.03428	-223.89499	331.71395	-407.20053	-168.25400	420.75751	-783.28478	-223.62286	315.25430	-782.37679	-255.53957	721.42743	-378.08890	-168.69975	655.30989	-396.57926	-184.10611	592.08391	-375.90126	-324.72150	631.95417	-386.78581	-228.83340	563.66713	-391.17457	-260.15872	742.11650	-756.35443	-149.55467	659.79125	-765.16618	-331.30833	647.52509	-758.73138	-214.70810	573.00778	-778.50092	-286.65100	812.08669	-429.72875	-450.06697	910.47302	-510.64112	-282.33053	808.39630	-690.04583	-449.08741	908.05369	-613.97730	-164.98105	1334.89399	-510.95473	-123.95180	1252.75290	-350.84401	-104.04109	1299.50207	-667.60794	-54.72562	1201.67149	-485.65975	-53.59848	1204.71241	-540.55596	-195.24200	1013.53015	-236.02325	-246.73204	909.95654	-291.44484	-218.61570	930.84457	-208.18856	-75.30205	860.56571	-234.92576	17.49481	809.84924	-277.19764	3.46386	787.49992	-240.50706	-209.71208	1115.95055	-829.09009	-308.36041	1036.05637	-809.96838	-259.92383	1054.81618	-872.88703	-148.15801	916.48032	-863.02494	-82.47863	849.17886	-833.98564	-101.12799	832.04484	-869.20224	-389.78750	764.31861	-437.54143	-384.77386	760.95558	-667.83044	-379.64679	765.69139	-466.49139	-378.01817	761.66935	-638.28696	
171	1.70000000	-93.63518	461.78759	-434.02952	-90.85942	384.18012	-415.65591	-318.51429	107.37116	-446.92841	-388.18178	57.05581	-501.06910	-202.71337	38.87170	-393.26108	-157.72006	58.26313	-448.48725	-82.17218	479.19810	-762.33575	-93.55092	370.63335	-782.74702	-291.64908	110.97966	-750.73726	-364.15772	62.50886	-703.66423	-127.67499	57.28372	-754.08874	-163.19380	34.21867	-814.31541	-151.29856	288.20276	-414.34446	-154.51625	425.07492	-404.28894	-223.54465	332.03340	-406.71373	-168.39995	420.58254	-783.35167	-223.89507	315.13163	-782.15383	-254.22250	721.55786	-377.36161	-167.70723	655.30779	-395.78351	-183.36471	592.10964	-375.14613	-323.96220	632.43841	-385.99048	-228.12028	563.73212	-391.10820	-259.82699	742.23544	-755.88261	-149.37800	659.71718	-764.91765	-331.15222	647.78563	-758.38522	-214.71937	573.05842	-778.31936	-285.13667	812.27583	-429.12596	-448.18020	911.30642	-510.00483	-281.30171	808.18092	-689.40797	-447.40325	908.77869	-613.26605	-161.97277	1334.38349	-511.86204	-120.82877	1252.31249	-351.08013	-100.71053	1298.05439	-668.86159	-51.86185	1201.25823	-485.97832	-50.80198	1203.98579	-540.73289	-195.07203	1011.90093	-239.22520	-247.08423	910.62712	-296.76334	-219.91284	928.94612	-212.91082	-79.02939	852.76842	-237.29820	12.77681	798.94694	-277.53311	-3.51130	776.27635	-242.28534	-207.60519	1112.52473	-828.40599	-306.43796	1033.26427	-807.79690	-258.40148	1051.14673	-871.18020	-148.28632	911.20738	-862.47867	-83.03438	842.63000	-834.05633	-105.54672	824.98013	-862.12520	-388.53504	765.00517	-436.71114	-383.90005	761.26239	-667.00221	-378.39878	766.22645	-465.66220	-377.10681	762.02149	-637.43190	
172	1.71000000	-93.12218	461.67227	-433.33586	-90.52502	384.01854	-415.33856	-318.44473	107.45384	-446.71797	-388.20885	57.08750	-501.02134	-202.73665	38.80252	-393.18162	-157.78285	58.22296	-448.34436	-81.95304	479.15175	-762.67694	-93.55549	370.26106	-782.59913	-291.63506	111.02975	-750.47080	-364.15374	62.49653	-703.38647	-127.63001	57.36182	-754.04018	-163.24434	34.32355	-814.20364	-150.99904	288.04014	-413.67846	-153.95674	424.86557	-403.95626	-223.06051	332.14265	-406.12364	-168.25590	420.54154	-783.38169	-224.05494	314.97163	-781.88758	-252.94801	721.58853	-376.61826	-166.53477	655.11194	-395.13864	-182.66085	591.99698	-374.35878	-323.18170	632.82511	-385.12524	-227.43639	564.01271	-390.20571	-259.43382	742.45048	-755.40671	-149.08768	659.81085	-764.81323	-330.81020	647.88488	-757.65465	-214.58209	573.14714	-778.21649	-283.60725	812.44689	-428.50892	-446.33705	911.95058	-509.37205	-280.25556	808.01492	-688.95239	-445.76663	909.27046	-612.60302	-159.06438	1333.82650	-512.91529	-117.80605	1251.61715	-351.48120	-97.71364	1296.31408	-670.46387	-49.11087	1200.79837	-486.54929	-48.20141	1203.25997	-541.20998	-194.62340	1010.03831	-242.70824	-246.81872	910.40547	-302.42311	-221.00733	926.91494	-217.78542	-82.91740	844.88164	-239.81530	7.55999	787.58169	-278.61988	-10.91052	764.96844	-244.33108	-205.66266	1108.55745	-827.58414	-304.27869	1029.96762	-805.31689	-256.94322	1046.95441	-869.32308	-148.81997	905.20278	-861.91350	-84.35362	835.70526	-834.33255	-109.04356	817.72487	-858.78023	-387.16994	765.54361	-435.95237	-382.93654	761.47475	-666.24541	-377.11144	766.68852	-464.82749	-376.16175	762.22629	-636.69863	
173	1.72000000	-92.48047	461.43005	-432.67584	-90.01431	383.63036	-414.96350	-318.35307	107.51470	-446.38701	-388.23389	57.10545	-500.96207	-202.72935	38.71249	-393.06007	-157.85193	58.15723	-448.17616	-81.53413	479.15332	-762.97387	-93.36765	369.97446	-782.62773	-291.53422	111.14974	-750.10283	-364.02026	62.62002	-702.91431	-127.59265	57.43666	-753.93565	-163.31657	34.45649	-814.10006	-150.63529	287.70833	-413.12779	-153.51525	424.18706	-403.70613	-222.53447	332.04580	-405.60681	-167.91273	420.49395	-783.29496	-224.00671	315.09289	-781.57000	-251.85694	721.61606	-375.63644	-165.49270	654.81677	-394.32038	-181.86359	591.81954	-373.66872	-322.19094	633.03007	-384.27513	-226.88173	564.57207	-388.44905	-258.95526	742.61244	-755.00782	-148.79651	659.98016	-765.00589	-330.33840	647.98146	-757.06276	-214.31191	573.21686	-778.09735	-282.05579	812.47936	-427.95108	-444.54520	912.41390	-508.74892	-279.20489	807.72298	-688.38220	-444.19470	909.54053	-611.95246	-156.30659	1333.23794	-514.05334	-114.78526	1250.78511	-351.89950	-95.07663	1294.25612	-672.36138	-46.60195	1200.19832	-487.40185	-45.72612	1202.65327	-541.86757	-193.90350	1007.92996	-246.26006	-245.97931	910.09879	-308.38004	-221.83076	924.72590	-222.74866	-86.91631	836.83966	-242.61547	1.83150	776.06995	-280.26729	-18.59343	753.46157	-246.86626	-203.82922	1104.08625	-826.63186	-301.86417	1026.19999	-802.59095	-255.47975	1042.16635	-867.22395	-149.72144	898.52822	-861.36303	-86.09508	828.16584	-834.88416	-111.35426	810.29561	-859.33657	-385.78202	765.91685	-435.17699	-381.94430	761.50296	-665.47073	-375.76497	767.08228	-463.99358	-375.18112	762.29772	-635.84960	
174	1.73000000	-91.78874	461.06933	-432.16415	-89.41612	383.05128	-414.46207	-318.29753	107.49603	-446.00479	-388.24649	57.12780	-500.92343	-202.70298	38.64246	-392.93121	-157.89645	58.07837	-448.05435	-80.95829	479.03866	-763.12397	-93.00030	369.78058	-782.86046	-291.45249	111.24042	-749.74376	-363.87996	62.73748	-702.43156	-127.59843	57.49960	-753.83587	-163.38883	34.56082	-814.02284	-150.31715	287.29709	-412.83474	-153.00071	423.66531	-403.00120	-222.15824	331.82655	-405.27860	-167.44512	420.38175	-783.13497	-223.75022	315.06013	-781.15199	-250.79298	721.64109	-374.70520	-164.54304	654.61942	-393.45135	-180.86932	591.61850	-373.12914	-321.04967	633.05233	-383.42945	-226.23598	564.96158	-386.87029	-258.27531	742.56209	-754.81372	-148.23538	659.96416	-765.13158	-329.76334	648.11618	-756.79656	-213.89062	573.08619	-777.66583	-280.51230	812.37770	-427.37981	-442.84051	912.70717	-508.15167	-278.09077	807.26239	-687.71472	-442.68592	909.59492	-611.30524	-153.75643	1332.64370	-515.28132	-111.62838	1249.82575	-352.25119	-92.61815	1292.12392	-674.33493	-44.26742	1199.49660	-488.35344	-43.42445	1202.10877	-542.65104	-192.92000	1005.54254	-249.92199	-245.20157	909.80151	-313.92074	-222.37426	922.38722	-227.63801	-91.05886	828.54089	-245.96231	-4.28083	764.60237	-282.15292	-26.33974	741.91473	-249.93511	-202.05727	1099.30529	-825.76309	-299.30887	1022.08454	-799.76664	-254.04601	1036.74321	-864.75922	-150.93515	891.22040	-860.70148	-88.11478	819.67676	-835.35695	-114.32839	802.01999	-859.08568	-384.40744	766.13159	-434.36959	-380.90044	761.33078	-664.66086	-374.39956	767.37079	-463.13556	-374.14210	762.18798	-634.91899	
175	1.74000000	-91.09824	460.65484	-431.72799	-88.89968	382.34026	-414.01139	-318.25096	107.37250	-445.76502	-388.24643	57.15164	-500.90181	-202.70716	38.58817	-392.83672	-157.94014	57.97649	-447.98720	-80.24654	478.60933	-762.98763	-92.46617	369.45904	-783.12070	-291.46433	111.24387	-749.48748	-363.89832	62.64551	-702.09258	-127.62533	57.54323	-753.79454	-163.44213	34.61630	-813.96058	-150.13409	286.87308	-412.74471	-152.48552	423.32535	-402.28836	-222.01407	331.59655	-405.13083	-166.87410	420.12954	-782.94067	-223.36084	314.55884	-780.89457	-249.47292	721.58527	-374.23802	-163.45919	654.43407	-392.95757	-179.71705	591.36744	-372.65879	-319.88593	633.04338	-382.48867	-225.11948	564.66318	-386.20444	-257.33675	742.20949	-754.71545	-146.81953	659.37954	-764.48309	-329.02030	648.04061	-756.41358	-213.30670	572.65516	-777.18046	-278.93939	812.15206	-426.84703	-441.19326	912.83946	-507.52192	-276.84765	806.81613	-687.38909	-441.20834	909.42876	-610.65339	-151.45468	1332.05157	-516.56748	-108.36999	1248.66053	-352.56741	-90.23031	1290.05321	-676.34235	-41.75837	1198.97619	-489.18746	-41.41422	1201.52916	-543.73946	-191.62462	1002.95711	-253.65205	-244.80562	908.82735	-318.78179	-222.58964	919.85013	-232.44629	-95.18960	820.20855	-249.73662	-10.59348	753.05177	-284.45065	-34.15901	730.73171	-253.43718	-200.25451	1094.30992	-825.08953	-296.62960	1017.63345	-797.04186	-252.60395	1030.84148	-862.04266	-152.26189	883.29293	-859.89530	-90.53202	810.43410	-835.71683	-118.05143	793.04816	-857.86229	-382.90663	766.11481	-433.71034	-379.75953	761.09160	-664.00186	-373.01902	767.56261	-462.36718	-373.04431	761.87713	-634.27238	
